<?xml version="1.0" encoding="UTF-8" standalone="no"?>
<!-- Generator: Adobe Illustrator 25.2.3, SVG Export Plug-In . SVG Version: 6.00 Build 0)  -->

<svg
   version="1.1"
   id="Layer_2"
   x="0px"
   y="0px"
   viewBox="0 0 128 128"
   style="enable-background:new 0 0 128 128;"
   xml:space="preserve"
   sodipodi:docname="green-apple.svg"
   inkscape:version="1.3.2 (091e20ef0f, 2023-11-25)"
   xmlns:inkscape="http://www.inkscape.org/namespaces/inkscape"
   xmlns:sodipodi="http://sodipodi.sourceforge.net/DTD/sodipodi-0.dtd"
   xmlns="http://www.w3.org/2000/svg"
   xmlns:svg="http://www.w3.org/2000/svg"><defs
   id="defs7" /><sodipodi:namedview
   id="namedview7"
   pagecolor="#ffffff"
   bordercolor="#000000"
   borderopacity="0.25"
   inkscape:showpageshadow="2"
   inkscape:pageopacity="0.0"
   inkscape:pagecheckerboard="0"
   inkscape:deskcolor="#d1d1d1"
   inkscape:zoom="3.4775291"
   inkscape:cx="63.407091"
   inkscape:cy="79.798039"
   inkscape:window-width="1114"
   inkscape:window-height="1432"
   inkscape:window-x="0"
   inkscape:window-y="0"
   inkscape:window-maximized="1"
   inkscape:current-layer="eyebrows" />
<path
   style="fill:#6EA517;"
   d="M78.7,52.85L60.22,36.83l6.86-5.1c0,0,19.91-11.15,38.9,2.29c18.66,13.2,16.9,52.45,2.46,70.4  s-24.47,19.01-29.92,18.83c-5.46-0.18-6.34-2.82-11.62-2.29c-5.28,0.53-7.04,3.52-16.72,2.82c-8.78-0.64-16.02-4.05-19.54-7.92  C27.31,112.18,78.7,52.85,78.7,52.85z"
   id="path1" />
<path
   style="fill:#87C244;"
   d="M100.21,34.4c0,0-7.93,3.42-15.85,4.04c-7.93,0.62-22.07-0.47-22.07-0.47s-1.55-8.24-2.02-8.24  c-0.47,0-21.28-7.24-36.52,4.2C7.69,45.98,6.11,69.38,8.67,80.55c5.89,25.67,24.78,37.76,24.78,37.76s16.87,1.87,38.01-7.45  s39.44-25.64,39.01-47.55C110,39.99,100.21,34.4,100.21,34.4z"
   id="path2" />
<path
   style="fill:#E5DD9F;"
   d="M37.7,38.9c-2.71-3.13-10.15-2.43-15.93,5.84c-6.02,8.6-6.29,24.36-1.33,24.79  c4.07,0.35,5.11-6.54,7.61-11.42C32.75,48.95,43.9,46.07,37.7,38.9z"
   id="path3" />
<path
   style="fill:#59702C;"
   d="M44.25,35.36c-1.19,2.48,2.73,8.58,17.37,9.03c15.4,0.47,20.45-8.11,18.69-10.11  c-1.76-2-7.52,1.29-18.45,1.18S46.28,31.15,44.25,35.36z"
   id="path4" />
<path
   style="fill:#513532;"
   d="M51.86,18.64c-1.18-0.24-5.99-1.06-6.47-2.94c-0.22-0.89,0.94-3.76,4-5.88s6.11-2.7,6.82-1.06  c0.71,1.65,0.47,2.7,0.47,3.06c0,0.35,2.42,3.18,4.11,6.82c2.35,5.05,3.64,9.99,3.41,15.05c-0.17,3.66-0.24,8.82-2.35,8.46  c-2.2-0.37-1.74-5.53-2.82-9.17C56.45,24.29,52.57,18.79,51.86,18.64z"
   id="path5" />
<path
   style="fill:#2F7C31;"
   d="M82.59,24.36c0.24-0.35,24.57-15.63,24.68-16.57S94.7,4.61,86.71,7.55s-16.27,7.67-20.22,15.87  c-3.17,6.58-3.17,11.05-2.35,12.11C64.53,36.03,82.59,24.36,82.59,24.36z"
   id="path6" />
<path
   style="fill:#4C8C19;"
   d="M79.89,23.42c10.74-6.86,27.39-15.63,27.39-15.63s0.5,1.31-2.7,6.82  c-4.23,7.29-14.11,16.69-24.1,19.63c-10.84,3.19-16.34,1.29-16.34,1.29S71.43,28.83,79.89,23.42z"
   id="path7" />
<g
   id="facial_expressions"
   transform="translate(4.5034175,9.8556645)">
	<g
   id="pleading-face">
		<path
   style="fill:#422b0d"
   d="m 71,101 c -0.57,0 -1.14,-0.12 -1.66,-0.36 -3.68,-1.63 -7.87,-1.66 -11.56,-0.06 -1.97,0.99 -4.38,0.19 -5.37,-1.78 -0.99,-1.97 -0.19,-4.38 1.78,-5.37 v 0 c 5.87,-2.66 12.58,-2.68 18.47,-0.07 2.01,0.92 2.9,3.29 1.98,5.3 C 73.99,100.09 72.57,101 71,101 Z"
   id="path4-3" />
		<g
   id="eyes">
			<path
   style="fill:#ffffff"
   d="m 43,47.7 c 9.58,0.03 17.33,7.82 17.3,17.4 C 60.27,74.68 52.48,82.43 42.9,82.4 33.32,82.37 25.57,74.58 25.6,65 25.66,55.43 33.43,47.71 43,47.7"
   id="path5-6" />
			<circle
   style="fill:#422b0d"
   cx="42.700001"
   cy="62.799999"
   r="15.4"
   id="circle5" />
			
				<ellipse
   transform="matrix(0.7659,-0.6429,0.6429,0.7659,-32.8541,47.0076)"
   style="fill:#ffffff"
   cx="48.130001"
   cy="68.620003"
   rx="2.5999999"
   ry="2.4000001"
   id="ellipse5" />
			
				<ellipse
   transform="matrix(0.8022,-0.5971,0.5971,0.8022,-26.9821,34.5782)"
   style="fill:#ffffff"
   cx="38.689999"
   cy="58.009998"
   rx="9"
   ry="7.3000002"
   id="ellipse6" />
			<path
   style="fill:#ffffff"
   d="m 86,47.7 c 9.58,0.03 17.33,7.82 17.3,17.4 -0.03,9.58 -7.82,17.33 -17.4,17.3 C 76.32,82.37 68.57,74.58 68.6,65 68.66,55.43 76.43,47.71 86,47.7"
   id="path6-7" />
			<circle
   style="fill:#422b0d"
   cx="85.699997"
   cy="62.799999"
   r="15.4"
   id="circle6" />
			
				<ellipse
   transform="matrix(0.7659,-0.6429,0.6429,0.7659,-22.7305,74.6885)"
   style="fill:#ffffff"
   cx="91.209999"
   cy="68.559998"
   rx="2.5999999"
   ry="2.4000001"
   id="ellipse7" />
			
				<ellipse
   transform="matrix(0.8022,-0.5971,0.5971,0.8022,-18.4797,60.2586)"
   style="fill:#ffffff"
   cx="81.699997"
   cy="58.02"
   rx="9"
   ry="7.3000002"
   id="ellipse8" />
		</g>
	</g>
	<g
   id="eyebrows"
   transform="translate(0,4)">
		<path
   style="fill:#422b0d"
   d="m 47.114006,42.005872 c 2.214121,0.312516 3.315882,-2.693498 1.069237,-3.543549 -5.008799,-1.734022 -10.488599,-1.475018 -15.304237,0.721353 -1.807569,0.749328 -3.472333,1.798834 -4.927952,3.107295 -0.811691,0.605358 -0.980536,1.750386 -0.375179,2.562078 0.605356,0.811692 1.750385,0.980537 2.562077,0.375179 l 0.126384,-0.06346 c 5.099023,-2.92417 11.042242,-4.04093 16.84967,-3.158899 z"
   id="path8" />
		<path
   style="fill:#422b0d"
   d="m 97.827115,44.753821 c 0.761305,0.66762 1.916097,0.589808 2.583715,-0.171497 0.66762,-0.761305 0.58981,-1.916097 -0.1715,-2.583716 C 98.891692,40.579186 97.315089,39.40138 95.572402,38.511525 90.933171,35.9753 85.500697,35.281592 80.373063,36.582771 c -2.403916,0.693678 -1.446089,3.753509 0.785807,3.616975 5.919794,-0.466084 11.804539,1.146237 16.668245,4.554075 v 0"
   id="path9" />
	</g>
</g></svg>
